HIERARCHY
ROOT root
{
	OFFSET 0.000000 0.000000 0.000000
	CHANNELS 6 Xposition Yposition Zposition Zrotation Yrotation Xrotation
	JOINT lhip
	{
		OFFSET 0.058581 -0.082280 -0.017664
		CHANNELS 3 Zrotation Yrotation Xrotation
		JOINT lknee
		{
			OFFSET 0.043451 -0.386469 0.008037
			CHANNELS 3 Zrotation Yrotation Xrotation
			JOINT lankle
			{
				OFFSET -0.014790 -0.426874 -0.037428
				CHANNELS 3 Zrotation Yrotation Xrotation
				JOINT ltoe
				{
					OFFSET 0.041054 -0.060286 0.122042
					CHANNELS 3 Zrotation Yrotation Xrotation
					End Site
					{
						OFFSET 0.000000 0.000000 0.000000
					}
				}
			}
		}
	}
	JOINT rhip
	{
		OFFSET -0.060310 -0.090513 -0.013543
		CHANNELS 3 Zrotation Yrotation Xrotation
		JOINT rknee
		{
			OFFSET -0.043257 -0.383688 -0.004843
			CHANNELS 3 Zrotation Yrotation Xrotation
			JOINT rankle
			{
				OFFSET 0.019056 -0.420046 -0.034562
				CHANNELS 3 Zrotation Yrotation Xrotation
				JOINT rtoe
				{
					OFFSET -0.034840 -0.062106 0.130323
					CHANNELS 3 Zrotation Yrotation Xrotation
					End Site
					{
						OFFSET 0.000000 0.000000 0.000000
					}
				}
			}
		}
	}
	JOINT lowerback
	{
		OFFSET 0.004439 0.124404 -0.038385
		CHANNELS 3 Zrotation Yrotation Xrotation
		JOINT upperback
		{
			OFFSET 0.004488 0.137956 0.026820
			CHANNELS 3 Zrotation Yrotation Xrotation
			JOINT chest
			{
				OFFSET -0.002265 0.056032 0.002855
				CHANNELS 3 Zrotation Yrotation Xrotation
				JOINT lowerneck
				{
					OFFSET -0.013390 0.211636 -0.033468
					CHANNELS 3 Zrotation Yrotation Xrotation
					JOINT upperneck
					{
						OFFSET 0.010113 0.088937 0.050410
						CHANNELS 3 Zrotation Yrotation Xrotation
						End Site
						{
							OFFSET 0.000000 0.000000 0.000000
						}
					}
				}
				JOINT lclavicle
				{
					OFFSET 0.071702 0.114000 -0.018898
					CHANNELS 3 Zrotation Yrotation Xrotation
					JOINT lshoulder
					{
						OFFSET 0.122921 0.045205 -0.019046
						CHANNELS 3 Zrotation Yrotation Xrotation
						JOINT lelbow
						{
							OFFSET 0.255332 -0.015649 -0.022946
							CHANNELS 3 Zrotation Yrotation Xrotation
							JOINT lwrist
							{
								OFFSET 0.265709 0.012698 -0.007375
								CHANNELS 3 Zrotation Yrotation Xrotation
								End Site
								{
									OFFSET 0.000000 0.000000 0.000000
								}
							}
						}
					}
				}
				JOINT rclavicle
				{
					OFFSET -0.082954 0.112472 -0.023707
					CHANNELS 3 Zrotation Yrotation Xrotation
					JOINT rshoulder
					{
						OFFSET -0.113228 0.046853 -0.008472
						CHANNELS 3 Zrotation Yrotation Xrotation
						JOINT relbow
						{
							OFFSET -0.260127 -0.014369 -0.031269
							CHANNELS 3 Zrotation Yrotation Xrotation
							JOINT rwrist
							{
								OFFSET -0.269108 0.006794 -0.006027
								CHANNELS 3 Zrotation Yrotation Xrotation
								End Site
								{
									OFFSET 0.000000 0.000000 0.000000
								}
							}
						}
					}
				}
			}
		}
	}
}
MOTION
Frames: 17
Frame Time: 0.033333
0.105279 0.481660 0.991732 94.245567 5.016169 102.651815 -2.783493 0.855116 -6.150738 -2.413532 -9.947711 -3.890506 7.021189 14.875989 -8.853960 0.000000 -0.000000 0.000000 -21.715470 -8.694815 -4.442103 0.114589 -0.986172 4.338083 20.342758 -16.675208 24.664327 0.000000 -0.000000 0.000000 0.905747 -1.534600 0.621931 9.845394 -6.832099 -27.275552 8.636543 -0.511225 13.101339 -1.775584 35.342369 7.316762 -1.650086 28.626300 -22.570683 34.467402 0.286725 -17.022175 9.692725 -10.587493 -23.861739 9.917236 -1.640867 -17.327815 -10.467397 -13.576979 -33.805548 -20.894609 -13.383733 -19.641619 2.981278 -6.197393 -19.500253 -136.586304 57.833370 -135.148035 12.356247 12.518870 -26.753298 
0.105935 0.481779 0.991721 94.364540 4.988435 102.592401 -2.829256 1.002690 -6.020892 -2.345551 -9.942128 -3.930643 6.922107 14.586080 -8.977142 0.000000 -0.000000 0.000000 -21.754791 -8.894318 -4.270303 0.152475 -1.023362 4.250363 19.919520 -16.403960 25.100116 0.000000 -0.000000 0.000000 0.865201 -1.603238 0.434125 10.022688 -6.944773 -27.399108 8.487476 -0.356175 13.409302 -1.616836 35.204229 7.320757 -1.773451 28.463647 -22.494768 34.513689 0.317327 -17.391412 9.440302 -10.885555 -23.777196 9.985950 -1.754937 -17.168100 -10.015312 -13.155688 -33.501802 -20.919557 -13.517677 -20.033984 3.001856 -6.197747 -19.393051 -136.971886 58.056549 -135.730433 11.627968 12.306872 -27.020703 
0.107032 0.481824 0.991763 94.767953 5.075692 102.454509 -2.644988 0.948238 -5.742297 -2.389449 -9.968490 -3.962594 6.885283 14.265759 -9.097135 0.000000 -0.000000 0.000000 -21.577007 -9.334433 -3.711191 0.094527 -0.816742 4.065286 19.932036 -16.249551 25.068264 0.000000 -0.000000 0.000000 1.091897 -1.735475 0.275047 10.031531 -7.248245 -27.434391 8.373599 -0.331431 13.640614 -1.507743 35.312022 7.427096 -1.872650 28.521091 -22.472956 34.515122 0.428699 -17.489770 9.393535 -11.202211 -23.833847 10.050415 -1.629834 -17.150439 -9.857488 -13.011464 -33.218746 -20.997913 -13.579024 -19.953035 3.183593 -6.132844 -19.329658 -136.886473 58.008411 -135.595918 11.268557 12.075127 -27.065749 
0.106589 0.481929 0.991720 94.804969 5.089772 102.387698 -2.640529 0.965311 -5.676932 -2.375221 -10.051554 -4.008663 6.958044 14.320484 -9.076796 0.000000 -0.000000 0.000000 -21.563399 -9.304415 -3.581565 0.114633 -0.901597 3.858348 19.836880 -16.404537 25.172450 0.000000 -0.000000 0.000000 1.073012 -1.789611 0.340299 10.074064 -7.280365 -27.453417 8.397512 -0.300109 13.375590 -1.336062 34.731947 7.626262 -1.661970 28.200443 -21.960595 34.445494 0.280788 -17.258532 9.412297 -11.225866 -23.928673 10.131176 -1.636162 -16.931095 -10.176525 -13.021921 -33.077412 -21.154704 -13.407052 -19.615867 3.243611 -6.096716 -19.430548 -136.874320 58.057684 -135.372551 11.460950 12.026244 -26.811902 
0.106427 0.481906 0.991775 94.917707 5.104206 102.313401 -2.581538 0.903686 -5.656510 -2.424697 -10.213049 -3.910877 6.954730 14.442235 -9.091522 0.000000 -0.000000 0.000000 -21.484787 -9.242074 -3.343914 0.073944 -0.624575 3.765444 19.751407 -16.440864 24.838831 0.000000 -0.000000 0.000000 1.132711 -1.834678 0.461792 10.061933 -7.344478 -27.663861 8.316245 -0.355364 13.497952 -1.475494 35.030828 7.555961 -1.560755 28.517420 -21.992933 34.413309 0.438789 -17.249674 9.480746 -11.293753 -23.988149 9.891493 -1.938988 -17.082419 -9.036866 -12.321009 -33.028078 -21.022572 -13.578424 -19.608390 3.142856 -5.824412 -19.411964 -137.134644 58.159010 -136.031840 10.518459 11.559804 -26.695536 
0.106012 0.482002 0.991571 94.763167 5.064721 102.202308 -2.644304 0.914365 -5.596698 -2.431172 -10.062874 -3.854659 6.966588 14.425557 -9.107557 0.000000 -0.000000 0.000000 -21.540045 -9.073388 -3.351534 0.033434 -0.646486 3.812024 19.763253 -16.472277 24.764840 0.000000 -0.000000 0.000000 1.021857 -1.805242 0.538333 10.036461 -7.248015 -27.650766 8.339416 -0.330259 13.520077 -1.512991 34.880059 7.564346 -1.523485 28.333619 -21.943532 34.457482 0.607711 -17.260353 9.273487 -11.431075 -23.928451 9.903225 -2.113437 -16.929062 -9.419318 -12.806549 -33.554123 -21.079593 -13.654432 -19.568633 3.374639 -5.642693 -19.438892 -137.133692 58.063580 -135.898632 10.653730 11.561938 -26.699543 
0.105915 0.482130 0.991602 94.670229 5.066159 102.120842 -2.650804 0.850428 -5.495702 -2.424075 -10.057757 -3.914421 6.946234 14.551378 -9.083892 0.000000 -0.000000 0.000000 -21.516355 -9.048115 -3.365922 -0.009937 -0.576568 3.852618 19.663024 -16.464648 24.787703 0.000000 -0.000000 0.000000 1.066050 -1.771543 0.521791 9.987125 -7.244875 -27.731189 8.265089 -0.363274 13.643560 -1.443327 35.210222 7.835406 -1.673711 28.654876 -22.099739 34.459971 0.695683 -17.418566 9.211465 -11.474091 -23.642873 9.782486 -2.197371 -17.083323 -8.506851 -12.488305 -33.716641 -20.962121 -13.788635 -19.747460 3.338626 -5.340884 -19.204021 -137.415506 58.125695 -136.152888 9.791964 11.316800 -26.498718 
0.105241 0.482105 0.991610 94.645161 5.052431 102.135586 -2.663874 0.832758 -5.633663 -2.455619 -9.928662 -3.778678 6.967983 14.453156 -9.091991 0.000000 -0.000000 0.000000 -21.478857 -9.088952 -3.417544 -0.049407 -0.661008 3.867118 19.656601 -16.412352 24.553539 0.000000 -0.000000 0.000000 1.052886 -1.753758 0.576432 9.956857 -7.249922 -27.810542 8.259867 -0.322632 13.499332 -1.290604 35.169339 7.807028 -1.528833 28.496378 -21.667827 34.379946 0.763468 -17.271701 9.338143 -11.458945 -23.717698 9.606608 -2.323114 -16.887444 -9.655702 -13.064973 -33.571827 -20.943443 -13.632010 -19.489820 3.337359 -5.316135 -19.428681 -137.175808 58.064208 -135.732238 10.769765 11.536577 -26.381952 
0.104695 0.482139 0.991733 94.438551 5.066686 102.144005 -2.693658 0.848540 -5.739510 -2.449771 -9.840583 -3.703453 7.015868 14.565052 -9.121507 0.000000 -0.000000 0.000000 -21.454680 -9.298736 -3.663093 -0.061739 -0.489042 3.976991 19.627513 -16.428052 24.621499 0.000000 -0.000000 0.000000 1.035287 -1.648683 0.619038 9.967166 -7.173561 -27.873464 8.336203 -0.256823 13.411142 -1.367068 34.742377 7.814373 -1.559782 28.391329 -21.370377 34.203021 0.690067 -17.363392 9.379207 -11.453804 -23.707067 9.635570 -2.323005 -16.519239 -9.020139 -12.775108 -33.825272 -21.054684 -13.592347 -19.412738 3.237394 -5.385930 -19.520635 -137.275021 58.201782 -135.724566 10.688725 11.511084 -26.473373 
0.103995 0.482094 0.991619 94.334075 5.077229 102.041951 -2.685587 0.899523 -5.737035 -2.490420 -9.613091 -3.564140 7.035214 14.418553 -9.277514 0.000000 -0.000000 0.000000 -21.479076 -9.394805 -3.623108 -0.015815 -0.624682 3.896702 19.708187 -16.406454 24.651417 0.000000 -0.000000 0.000000 1.082373 -1.603085 0.698214 9.910883 -7.125429 -27.986162 8.289005 -0.270973 13.460877 -1.440816 34.655718 7.663955 -1.348403 28.225610 -20.998221 34.230619 0.613464 -17.118800 9.277582 -11.302777 -23.793414 9.841923 -2.343503 -16.574558 -9.745501 -13.191194 -33.692005 -21.174178 -13.491236 -19.243418 3.433737 -5.367413 -19.735556 -137.218571 58.257646 -135.621879 11.615264 11.869010 -26.415619 
0.103203 0.482033 0.991609 94.203319 5.100100 101.864807 -2.677209 0.971352 -5.654171 -2.506829 -9.580827 -3.483342 7.082429 14.429133 -9.239271 0.000000 -0.000000 0.000000 -21.473501 -9.316217 -3.625328 -0.024655 -0.647204 4.013520 19.720193 -16.326949 24.683543 0.000000 -0.000000 0.000000 1.114840 -1.611996 0.922593 9.895958 -7.015609 -28.027819 8.269268 -0.258075 13.579447 -1.582648 34.757077 7.722551 -1.603022 28.222421 -21.163589 34.121709 0.584343 -17.083834 9.288794 -11.151439 -23.798314 9.912246 -2.555456 -16.551716 -9.530821 -13.007370 -33.400229 -21.140724 -13.468703 -19.268853 3.385079 -5.454774 -19.835123 -137.277544 58.254985 -135.751015 11.548340 11.786913 -26.217910 
0.103329 0.481602 0.991461 94.118050 5.128622 101.656282 -2.624665 1.051141 -5.481345 -2.551793 -9.588685 -3.363795 7.010386 14.439346 -9.356480 0.000000 -0.000000 0.000000 -21.432970 -9.298589 -3.434585 -0.104137 -0.894802 3.962892 19.814932 -16.304526 24.742541 0.000000 -0.000000 0.000000 1.086257 -1.601258 0.920148 9.821754 -7.017768 -27.666557 8.192186 -0.228503 13.462328 -1.261816 35.127023 8.359678 -1.872593 28.278006 -21.591105 34.396117 0.706209 -17.492494 8.998520 -11.468846 -23.498664 9.998347 -2.414358 -16.255873 -9.712092 -13.181898 -33.215057 -20.891275 -13.294289 -19.804244 3.322496 -5.332941 -19.408159 -137.080331 58.335355 -135.407436 11.859443 11.945357 -26.335487 
0.102684 0.481401 0.991385 94.130743 5.112438 101.675529 -2.609905 1.008445 -5.612245 -2.584714 -9.643479 -3.224037 6.997062 14.461108 -9.399536 0.000000 -0.000000 0.000000 -21.421212 -9.255163 -3.440090 -0.080646 -0.960157 3.953816 19.764328 -16.278713 24.568291 0.000000 -0.000000 0.000000 1.050133 -1.591204 0.878794 9.796188 -7.005980 -27.632058 8.164962 -0.230011 13.438361 -1.169863 35.037273 8.447348 -1.816485 28.277590 -21.456199 34.329869 0.662480 -17.439349 8.963720 -11.459170 -23.384719 10.194575 -2.641700 -16.162090 -9.430162 -13.064976 -33.025203 -20.845765 -13.282512 -19.733363 3.395044 -5.322380 -19.315175 -137.103261 58.251600 -135.426587 11.493094 11.924549 -26.491342 
0.102318 0.481070 0.991071 94.029380 5.049971 101.457578 -2.699664 1.162060 -5.463455 -2.603598 -9.824306 -3.144266 6.998124 14.557693 -9.452607 0.000000 -0.000000 0.000000 -21.538540 -9.243011 -3.366187 0.022182 -0.916574 4.095972 19.614411 -16.332344 24.211391 0.000000 -0.000000 0.000000 0.950184 -1.548384 0.555776 9.796237 -7.072941 -26.981548 8.070463 -0.159076 13.540246 -1.324159 34.678309 8.340272 -1.984314 28.446086 -21.383673 34.068868 0.616617 -17.319046 9.104176 -11.267339 -23.368455 10.154547 -3.305790 -16.294621 -8.093079 -12.100735 -33.024455 -20.776132 -13.336248 -19.543286 3.321505 -5.390724 -19.307031 -137.854297 58.390114 -136.287403 9.962977 11.418928 -26.075535 
0.101297 0.480905 0.991132 94.112131 5.036400 101.322925 -2.661732 1.044832 -5.557488 -2.696962 -9.799585 -2.783778 6.990035 14.600339 -9.591899 0.000000 -0.000000 0.000000 -21.524211 -9.195023 -3.347007 0.051725 -1.122145 4.232988 19.367897 -16.314748 24.184553 0.000000 -0.000000 0.000000 0.970626 -1.543658 0.745513 9.718935 -7.046141 -26.849487 8.064526 -0.081728 13.347694 -1.145285 34.626232 8.609413 -1.943188 28.214119 -21.042164 33.929721 0.628540 -17.350960 8.999095 -11.483460 -23.292650 10.223570 -3.661344 -16.290586 -9.112710 -12.620224 -33.015818 -20.836664 -13.177900 -19.369927 3.487077 -5.532645 -19.249908 -137.626973 58.176688 -135.963550 10.790419 11.669678 -26.252165 
0.099979 0.480663 0.991163 94.065074 4.991238 101.038500 -2.693441 0.932910 -5.511023 -2.726274 -9.644181 -2.484534 6.910447 14.512953 -9.666356 0.000000 -0.000000 0.000000 -21.592273 -9.041932 -3.355125 0.064943 -1.264093 4.611198 19.233404 -16.258249 24.018158 0.000000 -0.000000 0.000000 0.966933 -1.454372 1.035892 9.625761 -6.967906 -26.649025 8.025122 0.003529 13.312155 -1.057105 34.728940 8.964678 -1.883247 28.033560 -20.738684 33.606820 0.782355 -17.272815 8.989827 -11.787542 -23.179035 10.367614 -4.105597 -16.293598 -10.238192 -13.149600 -32.414145 -20.577658 -13.046804 -18.990611 3.262863 -5.649965 -19.194501 -137.011703 57.793202 -135.409553 11.790514 12.074094 -26.249731 
0.099270 0.480249 0.991108 94.201467 4.873011 100.895784 -2.774984 0.986968 -5.730168 -2.886198 -9.772582 -1.855111 6.886675 14.431608 -9.941828 0.000000 -0.000000 0.000000 -21.676993 -9.209557 -3.459513 0.042420 -1.574800 5.178142 19.326098 -16.216957 23.690133 0.000000 -0.000000 0.000000 0.940431 -1.483193 0.774857 9.534284 -7.105297 -25.871078 7.885148 0.145500 12.995481 -0.854384 34.376780 9.315808 -1.698963 27.899580 -20.214362 33.435357 0.966098 -17.317785 8.793879 -12.125170 -22.951402 10.419298 -4.731435 -16.434946 -10.021679 -12.963835 -32.232335 -20.420896 -13.092041 -18.861208 3.166908 -5.523523 -18.999949 -137.285102 57.958269 -136.130321 11.318768 12.126818 -25.781786 
